<svg version="1.1" xmlns="http://www.w3.org/2000/svg" xmlns:xlink="http://www.w3.org/1999/xlink" width="24px" height="24px" viewBox="0,0,256,256"><g fill="#00ffef" fill-rule="nonzero" stroke="none" stroke-width="1" stroke-linecap="butt" stroke-linejoin="miter" stroke-miterlimit="10" stroke-dasharray="" stroke-dashoffset="0" font-family="none" font-weight="none" font-size="none" text-anchor="none" style="mix-blend-mode: normal"><g transform="translate(0,0) scale(10.66667,10.66667)"><path d="M12,8c-2.20914,0 -4,1.79086 -4,4c0,2.20914 1.79086,4 4,4c2.20914,0 4,-1.79086 4,-4c0,-2.20914 -1.79086,-4 -4,-4zM12,14c-1.10457,0 -2,-0.89543 -2,-2c0,-1.10457 0.89543,-2 2,-2c1.10457,0 2,0.89543 2,2c0,1.10457 -0.89543,2 -2,2zM20.99,9h-1.575c-0.008,-0.022 -0.036,-0.107 -0.046,-0.129l1.11,-1.11c0.78402,-0.78512 0.78402,-2.05688 0,-2.842l-1.4,-1.4c-0.37637,-0.37755 -0.8879,-0.58922 -1.421,-0.588v0c-0.53241,-0.00069 -1.04312,0.21094 -1.419,0.588l-1.169,1.093l-0.07,-0.032v-1.571c-0.0011,-1.10947 -0.90053,-2.00845 -2.01,-2.009h-1.98c-1.10947,0.00055 -2.0089,0.89953 -2.01,2.009v1.557l-0.086,0.049l-0.043,0.016l-1.106,-1.109c-0.37596,-0.37767 -0.8871,-0.58969 -1.42,-0.589v0c-0.5331,-0.00122 -1.04463,0.21045 -1.421,0.588l-1.4,1.4c-0.78402,0.78512 -0.78402,2.05688 0,2.842l1.1,1.143c-0.013,0.029 -0.033,0.063 -0.043,0.093h-1.571c-1.10986,0.00055 -2.00945,0.90014 -2.01,2.01v1.982c0.0011,1.10947 0.90053,2.00845 2.01,2.009h1.575c0.008,0.022 0.036,0.107 0.046,0.129l-1.11,1.11c-0.78402,0.78512 -0.78402,2.05688 0,2.842l1.4,1.4c0.79546,0.7586 2.04654,0.7586 2.842,0l1.115,-1.115c0.022,0.011 0.1,0.047 0.121,0.056v1.571c0.00221,1.10908 0.90192,2.007 2.011,2.007h1.98c1.10947,-0.00055 2.0089,-0.89953 2.01,-2.009v-1.557l0.129,-0.065l1.109,1.109c0.79539,0.75975 2.04761,0.75975 2.843,0l1.4,-1.4c0.78402,-0.78512 0.78402,-2.05688 0,-2.842l-1.1,-1.143c0.013,-0.029 0.033,-0.063 0.043,-0.093h1.566c1.10947,-0.00055 2.0089,-0.89953 2.01,-2.009v-1.982c-0.0011,-1.10947 -0.90053,-2.00845 -2.01,-2.009zM20.99,13h-1.569c-0.82667,0.02429 -1.5621,0.53151 -1.87853,1.29561c-0.31643,0.7641 -0.15493,1.64276 0.41253,2.24439l1.109,1.124l-1.414,1.4l-1.11,-1.109c-0.6015,-0.56735 -1.47994,-0.72894 -2.24395,-0.41275c-0.76402,0.31618 -1.27138,1.05127 -1.29605,1.87775l-0.01,1.58l-1.99,-0.009v-1.571c-0.01017,-0.83523 -0.52777,-1.58014 -1.307,-1.881c-0.25863,-0.10759 -0.53588,-0.16332 -0.816,-0.164c-0.53057,-0.00228 -1.0403,0.20636 -1.417,0.58l-1.124,1.109l-1.4,-1.414l1.108,-1.108c0.56868,-0.60137 0.73109,-1.48068 0.41475,-2.24551c-0.31634,-0.76483 -1.05243,-1.27252 -1.87975,-1.29649l-1.579,-0.009l0.01,-1.991h1.569c0.82667,-0.02429 1.5621,-0.53151 1.87853,-1.29561c0.31643,-0.7641 0.15493,-1.64276 -0.41253,-2.24439l-1.109,-1.124l1.414,-1.4l1.11,1.109c0.58937,0.57704 1.46822,0.74239 2.227,0.419l0.018,-0.007c0.77371,-0.30346 1.28598,-1.04595 1.295,-1.877l0.01,-1.58l1.99,0.009v1.571c-0.00017,0.80607 0.48357,1.53345 1.227,1.845c0.026,0.013 0.057,0.027 0.087,0.039c0.75844,0.3235 1.63708,0.15811 2.226,-0.419l1.124,-1.109l1.4,1.414l-1.108,1.108c-0.56868,0.60137 -0.73109,1.48068 -0.41475,2.24551c0.31634,0.76483 1.05243,1.27252 1.87975,1.29649h1.569l0.01,0.009z"></path></g></g></svg>