<svg version="1.1" xmlns="http://www.w3.org/2000/svg" xmlns:xlink="http://www.w3.org/1999/xlink" width="24px" height="24px" viewBox="0,0,256,256"><g fill="#00e7ff" fill-rule="nonzero" stroke="none" stroke-width="1" stroke-linecap="butt" stroke-linejoin="miter" stroke-miterlimit="10" stroke-dasharray="" stroke-dashoffset="0" font-family="none" font-weight="none" font-size="none" text-anchor="none" style="mix-blend-mode: normal"><g transform="translate(0.00794,0.00143) scale(10.66667,10.66667)"><path d="M20.553,3.105l-6,3c-3.328,1.665 -5.279,3.848 -5.798,6.495c-0.738,3.751 1.992,7.958 2.861,8.321c0.12141,0.0518 0.252,0.07866 0.384,0.079v0c6.682,0 11,-3.532 11,-9c0,-6.691 -0.9,-8.318 -1.293,-8.707c-0.30414,-0.30444 -0.76895,-0.38017 -1.154,-0.188zM12.953,18.965c-0.02131,-3.54778 2.13969,-6.744 5.44,-8.046c0.33347,-0.13738 0.56713,-0.44368 0.6115,-0.8016c0.04437,-0.35792 -0.10744,-0.712 -0.39728,-0.92664c-0.28984,-0.21464 -0.6728,-0.25658 -1.00222,-0.10975c-3.30263,1.29325 -5.71446,4.18571 -6.393,7.667c-0.53287,-1.18292 -0.70472,-2.49682 -0.494,-3.777c0.4,-2 1.989,-3.706 4.728,-5.076l5.03,-2.515c0.42584,2.17956 0.60164,4.40059 0.524,6.62c0,4.063 -3.06,6.67 -8.046,6.965zM3.523,5.38c-0.4255,2.1796 -0.60097,4.40062 -0.523,6.62c-0.06735,2.80495 1.70404,5.3253 4.366,6.212c0.33761,0.12713 0.58058,0.42624 0.63581,0.78273c0.05524,0.3565 -0.08582,0.71511 -0.36912,0.93844c-0.28331,0.22333 -0.66494,0.27677 -0.99869,0.13982c-3.42791,-1.18722 -5.70212,-4.44596 -5.634,-8.073c0,-6.691 0.9,-8.318 1.293,-8.707c0.30414,-0.30444 0.76895,-0.38017 1.154,-0.188l6,3c0.49568,0.24687 0.69737,0.84882 0.4505,1.3445c-0.24687,0.49568 -0.84882,0.69737 -1.3445,0.4505z"></path></g></g></svg>