<svg version="1.1" xmlns="http://www.w3.org/2000/svg" xmlns:xlink="http://www.w3.org/1999/xlink" width="24px" height="24px" viewBox="0,0,256,256"><g fill="none" fill-rule="nonzero" stroke="none" stroke-width="1" stroke-linecap="butt" stroke-linejoin="miter" stroke-miterlimit="10" stroke-dasharray="" stroke-dashoffset="0" font-family="none" font-weight="none" font-size="none" text-anchor="none" style="mix-blend-mode: normal"><g transform="scale(10.66667,10.66667)"><g id="Layer_2"><g id="star"><g id="star-2"><rect x="0" y="-24" transform="rotate(90)" width="24" height="24" fill="#004eff" opacity="0"></rect><path d="M17.56,21c-0.15992,0.00064 -0.31767,-0.03708 -0.46,-0.11l-5.1,-2.67l-5.1,2.67c-0.33787,0.17766 -0.7474,0.14748 -1.05557,-0.0778c-0.30817,-0.22528 -0.4612,-0.60635 -0.39443,-0.9822l1,-5.63l-4.12,-4c-0.26194,-0.2614 -0.35812,-0.64609 -0.25,-1c0.11824,-0.36258 0.43242,-0.62633 0.81,-0.68l5.7,-0.83l2.51,-5.13c0.16709,-0.34499 0.51668,-0.56411 0.9,-0.56411c0.38332,0 0.73291,0.21912 0.9,0.56411l2.54,5.12l5.7,0.83c0.37758,0.05367 0.69176,0.31742 0.81,0.68c0.10812,0.35391 0.01194,0.7386 -0.25,1l-4.12,4l1,5.63c0.07289,0.3828 -0.08322,0.77307 -0.4,1c-0.18108,0.1269 -0.39912,0.1902 -0.62,0.18zM12,16.1c0.1603,-0.00405 0.31887,0.03387 0.46,0.11l3.77,2l-0.72,-4.21c-0.05672,-0.32639 0.05188,-0.65968 0.29,-0.89l3,-2.93l-4.2,-0.62c-0.31237,-0.06289 -0.57607,-0.27088 -0.71,-0.56l-1.89,-3.75l-1.89,3.75c-0.14684,0.29165 -0.42683,0.49325 -0.75,0.54l-4.2,0.62l3,2.93c0.23812,0.23032 0.34672,0.56361 0.29,0.89l-0.72,4.16l3.77,-2c0.15974,-0.05939 0.33285,-0.07324 0.5,-0.04z" fill="#00e1ff"></path></g></g></g></g></g></svg>